<svg width="15" height="15" viewBox="0 0 15 15" fill="none" xmlns="http://www.w3.org/2000/svg">
<path d="M13.3333 6.5812C13.5133 7.79489 13.306 9.03443 12.7409 10.1235C12.1758 11.2126 11.2817 12.0958 10.1857 12.6474C9.08975 13.199 7.84775 13.391 6.63637 13.1961C5.42498 13.0012 4.30591 12.4292 3.43832 11.5616C2.57072 10.6941 1.99879 9.57498 1.80386 8.3636C1.60893 7.15222 1.80094 5.91021 2.35257 4.81425C2.9042 3.71828 3.78737 2.82416 4.87645 2.25905C5.96553 1.69395 7.20507 1.48664 8.41876 1.66662C9.65677 1.8502 10.8029 2.42709 11.6879 3.31207C12.5729 4.19704 13.1498 5.34319 13.3333 6.5812Z" stroke="#6B7280" stroke-width="3" stroke-linecap="round" stroke-linejoin="round"/>
</svg>
